<?xml version="1.0" encoding="utf-8"?>
<!-- Generator: Adobe Illustrator 27.5.0, SVG Export Plug-In . SVG Version: 6.00 Build 0)  -->
<svg version="1.1" id="Layer_1" xmlns="http://www.w3.org/2000/svg" xmlns:xlink="http://www.w3.org/1999/xlink" x="0px" y="0px"
	 viewBox="0 0 3408.109 1999.999" style="enable-background:new 0 0 3408.109 1999.999;" xml:space="preserve">
<g>
	<g>
		<g>
			<rect x="-0.001" y="0" style="fill:#FFFFFF;" width="3408.11" height="2000"/>
		</g>
	</g>
	<g>
		<g>
			<path style="fill:#EAFCFC;" d="M3212.032,1884.226c102.587-142.604,36.444-1060.892-128.946-1153.908
				c-181.701-102.189-327.71,68.126-470.475-67.124c-62.265-58.987-10.815-205.38-139.52-253.469
				c-180.781-67.547-633.788,186.345-562.405-1.002c71.382-187.346-414.234-316.585-877.403-291.774
				c-463.169,24.811-377.194,278.75-370.705,319.827c6.489,41.076,74.627,239.442-189.271,330.611
				c-263.898,91.168-203.332,215.398-177.374,286.53c22.608,61.953,150.335,135.25-35.691,295.547
				c-154.877,133.455-114.004,464.929-69.014,532.904L3212.032,1884.226z"/>
			<path style="opacity:0.8;fill:#FFFFFF;" d="M1247.657,714.732c-5.951-23.992-29.128-41.891-56.835-41.891
				c-5.087,0-10.019,0.606-14.723,1.739c-13.675-27.088-43.351-45.857-77.765-45.857c-8.897,0-17.478,1.254-25.547,3.582
				c-18.526-28.417-52.184-47.418-90.635-47.418c-45.747,0-84.711,26.896-99.476,64.547c-10.451-5.397-22.482-8.484-35.296-8.484
				c-40.099,0-72.606,30.111-72.606,67.256c0,2.202,0.123,4.378,0.346,6.526H1247.657z"/>
			<path style="opacity:0.8;fill:#FFFFFF;" d="M1155.699,365.311c5.081-20.487,24.873-35.772,48.533-35.772
				c4.343,0,8.556,0.518,12.572,1.485c11.677-23.131,37.019-39.159,66.406-39.159c7.598,0,14.925,1.071,21.816,3.059
				c15.82-24.266,44.562-40.492,77.396-40.492c39.065,0,72.338,22.967,84.945,55.119c8.925-4.609,19.198-7.245,30.141-7.245
				c34.242,0,62,25.713,62,57.432c0,1.88-0.104,3.738-0.295,5.572H1155.699z"/>
			<path style="opacity:0.8;fill:#FFFFFF;" d="M1612.019,681.291c2.856-11.516,13.981-20.108,27.281-20.108
				c2.441,0,4.809,0.291,7.067,0.835c6.564-13.003,20.809-22.012,37.327-22.012c4.271,0,8.39,0.603,12.263,1.72
				c8.893-13.64,25.048-22.761,43.505-22.761c21.959,0,40.661,12.91,47.748,30.983c5.016-2.591,10.792-4.072,16.942-4.072
				c19.248,0,34.852,14.454,34.852,32.283c0,1.057-0.059,2.102-0.166,3.132H1612.019z"/>
			<path style="opacity:0.8;fill:#FFFFFF;" d="M2251.826,763.035c4.457-17.97,21.817-31.377,42.569-31.377
				c3.81,0,7.505,0.454,11.027,1.303c10.242-20.289,32.47-34.347,58.245-34.347c6.664,0,13.091,0.94,19.135,2.683
				c13.876-21.284,39.086-35.516,67.886-35.516c34.265,0,63.448,20.145,74.507,48.345c7.827-4.042,16.838-6.354,26.437-6.354
				c30.034,0,54.382,22.553,54.382,50.375c0,1.649-0.092,3.279-0.26,4.888H2251.826z"/>
			<polygon style="opacity:0.5;fill:#C5DDF9;" points="3066.241,1440.093 2984.416,1440.093 2984.416,1273.979 2938.754,1273.979 
				2938.754,1347.943 2873.61,1347.943 2873.61,1324.129 2873.61,1177.511 2766.949,1177.511 2766.949,1333.352 2735.043,1334.352 
				2735.043,1177.219 2697.818,1177.219 2697.818,1110.259 2675.484,1110.259 2675.484,1065.287 2588.273,1065.287 
				2588.273,1110.259 2565.939,1110.259 2565.939,1177.219 2528.715,1177.219 2528.715,1262.339 2511.539,1263.342 
				2506.381,1011.162 2391.517,1011.162 2391.517,1145.317 2351.102,1146.317 2351.102,936.64 2337.276,936.64 2337.276,892.392 
				2216.031,892.392 2216.031,936.64 2202.205,936.64 2202.205,1182.572 2176.68,1182.572 2176.68,1131.097 2155.409,1131.097 
				2155.409,1088.014 2124.566,1088.014 2124.566,962.257 2079.896,962.257 2079.896,1088.014 2049.055,1088.014 2049.055,1131.097 
				2027.783,1131.097 2027.783,1216.283 2001.194,1216.136 2001.194,1107.311 1746.776,1115.268 1686.383,1257.748 
				1659.795,1257.748 1659.795,1206.778 1593.574,1206.778 1593.574,863.357 1532.932,863.357 1532.932,899.335 1505.271,899.335 
				1505.271,1178.621 1409.52,1178.621 1409.52,1229.59 1328.327,1229.59 1328.327,1110.274 1200.048,1107.447 1200.048,1280.146 
				1188.346,1280.293 1173.451,1280.293 1173.451,1131.234 1152.173,1131.234 1152.173,1088.151 1121.32,1088.151 1121.32,962.394 
				1076.636,962.394 1076.636,1088.151 1045.783,1088.151 1045.783,1131.234 1024.505,1131.234 1024.505,1219.338 998.972,1219.338 
				998.972,936.777 985.141,936.777 985.141,892.53 863.856,892.53 863.856,936.777 850.026,936.777 850.026,1146.455 
				809.598,1145.455 809.598,1011.3 744.825,1011.3 743.791,1263.479 725.538,1262.477 725.538,1007.861 635.119,1007.861 
				635.119,940.902 612.777,940.902 612.777,895.93 525.537,895.93 525.537,940.902 503.195,940.902 503.195,1177.355 
				465.958,1177.355 465.958,1334.489 434.042,1333.489 434.042,1177.648 327.346,1280.747 327.346,1324.267 327.346,1348.081 
				256.2,1348.081 256.2,1870.551 1677.748,1870.481 3066.241,1870.413 			"/>
			<path style="fill:#86B1F2;" d="M2225.464,1828.845c-385.724-41.455-868.771-443.948-1196.346-490.892
				c-345.417-49.5-700.467,501.821-700.467,501.821l1896.813-4.829V1828.845z"/>
			<g>
				<rect x="912.067" y="1412.439" style="fill:#355389;" width="17.11" height="189.657"/>
				<polygon style="fill:#3C8F7C;" points="920.622,1044.512 864.771,1495.874 976.473,1495.874 				"/>
				<polygon style="fill:#50BFA5;" points="885.028,1332.168 964.667,1400.459 961.604,1375.714 887.502,1312.17 				"/>
				<polygon style="fill:#50BFA5;" points="897.27,1233.232 946.037,1249.905 943.744,1231.376 899.377,1216.207 				"/>
			</g>
			<g>
				<rect x="1078.9" y="1461.408" style="fill:#355389;" width="15.339" height="142.563"/>
				<polygon style="fill:#3C8F7C;" points="1088.701,1207.238 1048.609,1494.995 1128.792,1494.995 				"/>
				<polygon style="fill:#50BFA5;" points="1051.153,1476.737 1123.088,1454.061 1122.001,1446.256 1052.34,1468.217 				"/>
				<polygon style="fill:#50BFA5;" points="1063.818,1385.83 1111.489,1370.803 1110.401,1362.998 1065.006,1377.31 				"/>
			</g>
			<path style="fill:#96D9C9;" d="M3167.817,1591.094l12.395-25.479c8.825-19.066,1.431-41.258-16.519-49.565l0,0
				c-45.229-20.937-99.924,1.04-122.165,49.087l-16.26,35.126c-7.124,15.39-21.48,24.969-36.57,26.125
				c-13.703,1.051-25.991,10.139-32.041,23.207l-8.572,18.519c-9.28,20.05-9.086,42.866-0.175,62.229
				c5.211,11.324,5.505,25.146-0.346,37.784l-12.138,26.222c-13.419,28.988-2.175,62.729,25.115,75.361l15.569,7.207
				c27.289,12.633,60.29-0.627,73.709-29.616l0,0c12.471-38.69,33.109-54.797,51.225-61.079
				c26.637-9.237,48.98-29.226,61.212-55.648l1.716-3.706c12.909-27.889,12.883-59.604,0.855-86.729
				C3159.519,1628.161,3158.146,1611.986,3167.817,1591.094z"/>
			<path style="fill:#96D9C9;" d="M222.726,1590.815l-12.395-25.479c-8.825-19.066-1.43-41.257,16.518-49.565l0,0
				c45.229-20.937,99.925,1.04,122.165,49.087l16.26,35.126c7.123,15.39,21.48,24.969,36.569,26.126
				c13.703,1.05,25.992,10.138,32.042,23.206l8.572,18.519c9.281,20.05,9.086,42.866,0.175,62.229
				c-5.211,11.324-5.505,25.146,0.345,37.784l12.138,26.222c13.419,28.989,2.175,62.729-25.115,75.361l-15.569,7.207
				c-27.289,12.633-60.29-0.627-73.709-29.616l0,0c-12.471-38.69-33.109-54.797-51.225-61.079
				c-26.637-9.237-48.98-29.226-61.212-55.648l-1.715-3.706c-12.909-27.889-12.884-59.604-0.856-86.729
				C231.024,1627.883,232.397,1611.708,222.726,1590.815z"/>
			<g>
				
					<rect x="2445.814" y="1637.049" transform="matrix(-1 -1.224647e-16 1.224647e-16 -1 4908.7383 3463.7559)" style="fill:#355389;" width="17.109" height="189.658"/>
				<polygon style="fill:#3C8F7C;" points="2454.369,1269.122 2510.22,1720.484 2398.519,1720.484 				"/>
				<polygon style="fill:#50BFA5;" points="2489.963,1556.778 2410.324,1625.07 2413.387,1600.324 2487.488,1536.78 				"/>
				<polygon style="fill:#50BFA5;" points="2477.721,1457.843 2428.954,1474.516 2431.247,1455.986 2475.614,1440.817 				"/>
			</g>
			<g>
				
					<rect x="2323.375" y="1686.02" transform="matrix(-1 -1.224647e-16 1.224647e-16 -1 4662.0889 3514.6016)" style="fill:#355389;" width="15.339" height="142.563"/>
				<polygon style="fill:#3C8F7C;" points="2328.913,1431.848 2369.005,1719.605 2288.822,1719.605 				"/>
				<polygon style="fill:#50BFA5;" points="2366.461,1701.348 2294.525,1678.671 2295.612,1670.867 2365.273,1692.827 				"/>
				<polygon style="fill:#50BFA5;" points="2353.795,1610.44 2306.125,1595.412 2307.213,1587.608 2352.608,1601.92 				"/>
			</g>
			<path style="fill:#96D9C9;" d="M190.85,1881.919c0,0,344.767-328.967,789.309-349.175
				c149.277-6.785,760.526,129.266,1275.251,236.154c21.638,4.494,561.096,113.955,634.546,117.203L190.85,1881.919z"/>
			<path style="fill:#50BFA5;" d="M2599.611,1884.199c0,0,90.064-119.635,146.743-137.983c56.677-18.349,3.259,54.526,3.259,54.526
				s100.545-109.942,137.441-100.031c33.821,9.086,0,77.233,0,77.233s38.093-37.736,84.289-37.736
				c46.195,0-35.706,141.303-35.706,141.303L2599.611,1884.199z"/>
			<path style="fill:#3C8F7C;" d="M2889.956,1883.525c0,0,61.566-164.643,137.812-145.603c61.787,15.43,17.858,98.271,21.625,94.505
				c3.767-3.768,36.905-59.995,90.525-59.995s-16.46,75.888-16.46,75.888s114.242-35.678,123.188,1.787
				c7.424,31.093-34.097,33.418-34.097,33.418H2889.956z"/>
			<path style="fill:#50BFA5;" d="M603.942,1884.199c0,0-90.065-119.635-146.743-137.983s-3.259,54.526-3.259,54.526
				s-97.854-133.507-134.75-123.595c-33.821,9.085-20.048,76.509-20.048,76.509s-20.736-13.448-66.932-13.448
				c-46.195,0,35.706,141.303,35.706,141.303L603.942,1884.199z"/>
			<path style="fill:#3C8F7C;" d="M386.281,1883.525c0,0-44.184-118.157-98.902-104.493c-44.342,11.073-12.816,70.525-15.519,67.822
				c-2.703-2.703-26.486-43.056-64.967-43.056c-38.48,0,11.812,54.461,11.812,54.461s-81.987-25.604-88.407,1.283
				c-5.328,22.314,24.47,23.982,24.47,23.982H386.281z"/>
			<g>
				<path style="fill:#3C8F7C;" d="M672.617,1847.131c0.403-2.39,0.613-4.834,0.613-7.32c0-27.73-25.989-50.211-58.049-50.211
					c-32.06,0-58.049,22.48-58.049,50.211c0,2.486,0.21,4.931,0.613,7.32H672.617z"/>
				<path style="fill:#50BFA5;" d="M738.313,1834.79c0.403-3.37,0.614-6.816,0.614-10.323c0-39.107-25.99-70.811-58.049-70.811
					c-32.06,0-58.049,31.703-58.049,70.811c0,3.507,0.21,6.953,0.614,10.323H738.313z"/>
				<path style="fill:#50BFA5;" d="M717.059,1878.182c-0.404-2.39-0.614-4.833-0.614-7.319c0-27.731,25.99-50.211,58.049-50.211
					s58.049,22.479,58.049,50.211c0,2.486-0.21,4.93-0.613,7.319H717.059z"/>
				<path style="fill:#3C8F7C;" d="M624.155,1878.182c-0.512-3.369-0.778-6.816-0.778-10.322c0-39.108,32.947-70.812,73.589-70.812
					c40.642,0,73.589,31.703,73.589,70.812c0,3.506-0.267,6.953-0.778,10.322H624.155z"/>
				<path style="fill:#50BFA5;" d="M680.657,1797.048c-20.313,0-38.458,10.058-50.435,25.831
					c-6.098-1.448-12.578-2.228-19.294-2.228c-36.063,0-65.298,22.479-65.298,50.211c0,2.486,0.236,4.93,0.69,7.319h198.944
					c0.454-3.369,0.69-6.816,0.69-10.322C745.955,1828.751,716.72,1797.048,680.657,1797.048z"/>
			</g>
			<g>
				<g>
					<g>
						<path style="fill:#3C8F7C;" d="M429.02,1729.032c-17.088-26.698-20.277-58.937-19.942-81.28
							c0.363-24.257,4.839-42.418,4.884-42.599l-1.236-0.436c-0.045,0.182-4.558,18.477-4.927,42.894
							c-0.341,22.563,2.884,55.134,20.184,82.162L429.02,1729.032z"/>
					</g>
					<g>
						<path style="fill:#3C8F7C;" d="M418.169,1600.717c-0.42,5.488-2.85,10.092-6.349,12.918c-2.99-3.822-4.667-9.057-4.248-14.546
							c0.42-5.488,2.85-10.092,6.349-12.918C416.912,1589.993,418.589,1595.228,418.169,1600.717z"/>
					</g>
					<g>
						<path style="fill:#3C8F7C;" d="M406.62,1613.387c2.898,4.75,3.797,10.158,2.869,14.853c-4.439-1.059-8.735-4.165-11.634-8.915
							c-2.899-4.75-3.797-10.157-2.869-14.852C399.425,1605.53,403.722,1608.637,406.62,1613.387z"/>
					</g>
					<g>
						<path style="fill:#3C8F7C;" d="M400.077,1628.297c4.501,2.931,7.552,7.45,8.726,12.217c-4.278,1.218-9.295,0.486-13.796-2.443
							c-4.501-2.931-7.553-7.45-8.726-12.217C390.559,1624.636,395.576,1625.367,400.077,1628.297z"/>
					</g>
					<g>
						<path style="fill:#3C8F7C;" d="M402.095,1649.062c3.564,2.327,5.773,6.306,6.375,10.705
							c-3.713,1.581-7.892,1.388-11.456-0.939c-3.563-2.327-5.772-6.306-6.375-10.705
							C394.352,1646.541,398.531,1646.733,402.095,1649.062z"/>
					</g>
					<g>
						<path style="fill:#3C8F7C;" d="M416.821,1624.459c4.006-2.142,8.491-2.261,12.329-0.715c-1.014,4.141-3.71,7.861-7.716,10.003
							c-4.006,2.142-8.49,2.262-12.329,0.715C410.119,1630.321,412.815,1626.602,416.821,1624.459z"/>
					</g>
					<g>
						<path style="fill:#3C8F7C;" d="M416.378,1638.8c4.006-2.142,8.49-2.262,12.328-0.715c-1.014,4.141-3.71,7.86-7.716,10.002
							c-4.006,2.143-8.491,2.262-12.329,0.715C409.675,1644.661,412.372,1640.941,416.378,1638.8z"/>
					</g>
					<g>
						<path style="fill:#3C8F7C;" d="M404.674,1671.872c2.119,0.495,3.876,1.927,4.936,3.786c-1.505,1.259-3.544,1.803-5.663,1.307
							c-2.118-0.495-3.875-1.926-4.936-3.785C400.517,1671.92,402.556,1671.377,404.674,1671.872z"/>
					</g>
				</g>
				<g>
					<g>
						<path style="fill:#3C8F7C;" d="M421.974,1747.896c-39.107-9.351-68.933-38.276-87.067-60.896
							c-19.687-24.556-30.234-47.191-30.338-47.418l-1.592,0.815c0.105,0.228,10.726,23.032,30.539,47.755
							c18.309,22.846,48.445,52.065,88.037,61.531L421.974,1747.896z"/>
					</g>
					<g>
						<path style="fill:#3C8F7C;" d="M305.098,1630.904c4.118,5.898,5.5,12.945,4.346,19.3c-6.141-0.789-12.14-4.313-16.258-10.211
							c-4.118-5.897-5.499-12.945-4.346-19.3C294.98,1621.482,300.979,1625.007,305.098,1630.904z"/>
					</g>
					<g>
						<path style="fill:#3C8F7C;" d="M304.053,1655.214c6.817,1.807,12.183,6.291,15.137,11.911
							c-5.301,3.432-12.153,4.678-18.97,2.87c-6.816-1.807-12.183-6.291-15.137-11.911
							C290.385,1654.652,297.236,1653.407,304.053,1655.214z"/>
					</g>
					<g>
						<path style="fill:#3C8F7C;" d="M309.852,1676.696c6.911-1.628,13.689-0.204,18.8,3.362c-3.26,5.539-8.867,9.881-15.778,11.509
							c-6.911,1.628-13.689,0.204-18.799-3.362C297.334,1682.666,302.941,1678.324,309.852,1676.696z"/>
					</g>
					<g>
						<path style="fill:#3C8F7C;" d="M325.432,1696.232c6.911-1.628,13.689-0.205,18.799,3.362
							c-3.26,5.539-8.867,9.88-15.777,11.508c-6.911,1.629-13.69,0.205-18.799-3.362
							C312.914,1702.201,318.521,1697.86,325.432,1696.232z"/>
					</g>
					<g>
						<path style="fill:#3C8F7C;" d="M320.773,1663.759c-0.349-6.646,1.836-12.905,5.57-17.41c4.155,3.543,6.964,9.194,7.313,15.84
							c0.348,6.646-1.837,12.906-5.57,17.411C323.931,1676.057,321.122,1670.405,320.773,1663.759z"/>
					</g>
					<g>
						<path style="fill:#3C8F7C;" d="M337.021,1683.967c-0.449-6.639,1.641-12.938,5.306-17.512
							c4.208,3.466,7.103,9.064,7.552,15.703c0.449,6.639-1.641,12.938-5.306,17.512
							C340.365,1696.203,337.47,1690.604,337.021,1683.967z"/>
					</g>
					<g>
						<path style="fill:#3C8F7C;" d="M350.452,1715.504c2.522-1.647,5.457-1.997,8.051-1.215c-0.461,2.777-2.044,5.381-4.566,7.027
							c-2.522,1.648-5.458,1.997-8.051,1.215C346.346,1719.754,347.931,1717.151,350.452,1715.504z"/>
					</g>
				</g>
				<g>
					<g>
						<g>
							<path style="fill:#3C8F7C;" d="M525.489,1803.134l1.691-0.112c-2.435-44.732,13.984-86.82,28.188-114.251
								c15.414-29.769,31.618-49.186,31.779-49.378l-1.24-1.275c-0.163,0.193-16.479,19.738-31.988,49.682
								C539.591,1715.461,523.028,1757.925,525.489,1803.134z"/>
						</g>
						<g>
							<path style="fill:#3C8F7C;" d="M594.488,1636.83c-3.861,6.503-9.404,10.539-15.032,11.646
								c-0.952-6.77,0.426-14.39,4.288-20.894c3.861-6.503,9.404-10.539,15.032-11.646
								C599.727,1622.706,598.35,1630.326,594.488,1636.83z"/>
						</g>
						<g>
							<path style="fill:#3C8F7C;" d="M573.843,1644.62c0.276,7.854-2.073,15.158-6.007,20.332
								c-4.268-4.34-7.111-11.115-7.386-18.97c-0.276-7.855,2.073-15.158,6.006-20.332
								C570.724,1629.99,573.567,1636.766,573.843,1644.62z"/>
						</g>
						<g>
							<path style="fill:#3C8F7C;" d="M557.363,1658.599c3.179,6.697,3.766,14.372,2.118,21.069
								c-5.497-1.413-10.607-5.743-13.787-12.44c-3.179-6.698-3.766-14.372-2.119-21.07
								C549.073,1647.571,554.184,1651.9,557.363,1658.599z"/>
						</g>
						<g>
							<path style="fill:#3C8F7C;" d="M546.042,1692.959c1.522,2.695,1.987,5.891,1.487,8.754c-2.344-0.401-4.608-2.037-6.13-4.733
								c-1.522-2.695-1.987-5.891-1.487-8.754C542.255,1688.627,544.519,1690.263,546.042,1692.959z"/>
						</g>
						<g>
							<path style="fill:#3C8F7C;" d="M541.156,1705.293c1.523,2.696,1.987,5.891,1.487,8.754c-2.344-0.4-4.608-2.037-6.13-4.732
								c-1.523-2.695-1.987-5.891-1.487-8.754C537.37,1700.961,539.634,1702.598,541.156,1705.293z"/>
						</g>
						<g>
							<path style="fill:#3C8F7C;" d="M578.306,1665.281c5.768,0.085,10.814,2.999,14.113,7.532
								c-3.685,4.431-8.977,7.191-14.745,7.106c-5.768-0.086-10.814-2.999-14.113-7.532
								C567.247,1667.957,572.538,1665.196,578.306,1665.281z"/>
						</g>
						<g>
							<path style="fill:#3C8F7C;" d="M568.942,1682.719c5.768,0.085,10.814,2.998,14.113,7.531
								c-3.686,4.431-8.977,7.191-14.745,7.106c-5.768-0.085-10.814-2.998-14.114-7.531
								C557.883,1685.395,563.174,1682.634,568.942,1682.719z"/>
						</g>
						<g>
							<path style="fill:#3C8F7C;" d="M553.446,1706.479c3.754,0.056,7.039,1.952,9.186,4.902c-2.399,2.884-5.843,4.681-9.597,4.626
								c-3.754-0.056-7.039-1.952-9.186-4.902C546.248,1708.222,549.692,1706.425,553.446,1706.479z"/>
						</g>
					</g>
				</g>
				<path style="fill:#3C8F7C;" d="M379.662,1876.475c0-7.443,44.965,1.342,48.706-8.804c3.741-10.146-38.511-10.729-38.511-24.451
					s21.532-4.101,34.158-4.101c12.625,0-24.928-5.875-24.928-10.73c0-4.856,13.176-2.311,13.176-7.469
					c0-5.157-69.192-9.047-61.094-21.671c8.098-12.623,45.296,3.678,55.51-2.854c10.214-6.532-54.566-13.655-56.169-23.367
					c-1.603-9.712,47.732,8.322,54.718,1.337c6.986-6.986-78.012-32.092-74.451-50.546c3.561-18.453,64.424,23.634,79.64,19.102
					c15.216-4.533-76.727-69.307-55.359-94.546c21.367-25.239,62.158,83.538,76.079,79.653s-17.434-68.734-3.213-80.015
					c14.22-11.28,55.037,91.302,57.614,112.367c2.577,21.064,7.757-45.313,30.095-53.077c22.338-7.765,0.647,41.12,4.532,56.013
					c3.885,14.892,22.013-38.201,46.456-34.316c24.443,3.885-44.19,52.445-37.391,66.69c6.798,14.245,59.796-47.555,76.403-30.947
					c16.607,16.606-63.835,62.696-59.435,75.311c4.399,12.615,52.661-9.004,66.558,4.894c13.897,13.896-51.846,22.724-60.563,22.724
					c-8.717,0-42.032,10.958-9.495,8.804C575.234,1874.32,379.662,1883.918,379.662,1876.475z"/>
				<g>
					<path style="fill:#50BFA5;" d="M507.832,1885.076c0,0,54.148,2.902,69.914-7.023c15.765-9.926,3.322-17.65,3.322-17.65
						s50.071-1.09,49.945-12.953c-0.125-11.863-12.262-11.179-12.262-11.179s25.273-17.177,20.559-27.883
						c-7.243-16.451-48.408,12.193-48.408,12.193s13.495-16.026,2.591-19.771C563.561,1790.53,507.832,1885.076,507.832,1885.076z"
						/>
					<path style="fill:#96D9C9;" d="M639.31,1808.388c4.714,10.706-20.559,27.883-20.559,27.883s18.241-0.242,15.28,11.296
						c-2.949,11.491-48.81,15.372-48.81,15.372s16.012,3.13,0.247,13.056c-15.765,9.926-77.635,9.082-77.635,9.082L639.31,1808.388z
						"/>
				</g>
			</g>
			<g>
				<g>
					<g>
						<path style="fill:#3C8F7C;" d="M2766.787,1716.308c18.54-28.967,22-63.945,21.637-88.188
							c-0.393-26.317-5.25-46.022-5.299-46.218l1.341-0.473c0.05,0.197,4.945,20.047,5.346,46.538
							c0.37,24.481-3.129,59.819-21.898,89.145L2766.787,1716.308z"/>
					</g>
					<g>
						<path style="fill:#3C8F7C;" d="M2778.56,1577.088c0.455,5.955,3.093,10.95,6.888,14.016c3.245-4.146,5.064-9.825,4.609-15.781
							c-0.455-5.955-3.093-10.949-6.889-14.016C2779.924,1565.453,2778.104,1571.133,2778.56,1577.088z"/>
					</g>
					<g>
						<path style="fill:#3C8F7C;" d="M2791.09,1590.835c-3.145,5.154-4.119,11.021-3.112,16.114
							c4.815-1.148,9.478-4.518,12.622-9.672c3.146-5.153,4.121-11.021,3.113-16.114
							C2798.896,1582.312,2794.235,1585.682,2791.09,1590.835z"/>
					</g>
					<g>
						<path style="fill:#3C8F7C;" d="M2798.189,1607.013c-4.885,3.179-8.194,8.083-9.468,13.255
							c4.642,1.321,10.085,0.527,14.969-2.651c4.884-3.18,8.194-8.084,9.467-13.255
							C2808.516,1603.039,2803.073,1603.833,2798.189,1607.013z"/>
					</g>
					<g>
						<path style="fill:#3C8F7C;" d="M2796,1629.541c-3.867,2.525-6.264,6.842-6.917,11.615c4.029,1.715,8.563,1.506,12.429-1.02
							c3.867-2.524,6.264-6.842,6.917-11.615C2804.399,1626.807,2799.866,1627.016,2796,1629.541z"/>
					</g>
					<g>
						<path style="fill:#3C8F7C;" d="M2780.021,1602.849c-4.347-2.324-9.211-2.454-13.376-0.775
							c1.101,4.492,4.025,8.528,8.372,10.853s9.212,2.453,13.376,0.775C2787.294,1609.208,2784.368,1605.173,2780.021,1602.849z"/>
					</g>
					<g>
						<path style="fill:#3C8F7C;" d="M2780.503,1618.407c-4.347-2.323-9.212-2.453-13.376-0.775c1.1,4.493,4.025,8.528,8.372,10.853
							s9.212,2.453,13.376,0.775C2787.775,1624.768,2784.85,1620.731,2780.503,1618.407z"/>
					</g>
					<g>
						<path style="fill:#3C8F7C;" d="M2793.201,1654.291c-2.298,0.537-4.205,2.09-5.355,4.107c1.633,1.365,3.846,1.955,6.145,1.418
							c2.298-0.538,4.205-2.09,5.355-4.107C2797.712,1654.343,2795.5,1653.753,2793.201,1654.291z"/>
					</g>
				</g>
				<g>
					<g>
						<path style="fill:#3C8F7C;" d="M2774.432,1736.774c42.43-10.146,74.791-41.529,94.466-66.071
							c21.36-26.642,32.803-51.201,32.916-51.446l1.728,0.884c-0.113,0.247-11.637,24.99-33.135,51.813
							c-19.865,24.786-52.561,56.489-95.518,66.761L2774.432,1736.774z"/>
					</g>
					<g>
						<path style="fill:#3C8F7C;" d="M2901.24,1609.842c-4.469,6.399-5.967,14.045-4.716,20.939
							c6.663-0.855,13.172-4.68,17.64-11.078c4.468-6.399,5.967-14.046,4.715-20.94
							C2912.217,1599.619,2905.708,1603.442,2901.24,1609.842z"/>
					</g>
					<g>
						<path style="fill:#3C8F7C;" d="M2902.373,1636.217c-7.396,1.96-13.218,6.825-16.423,12.923
							c5.752,3.724,13.187,5.075,20.581,3.114c7.396-1.96,13.219-6.825,16.424-12.923
							C2917.203,1635.607,2909.77,1634.256,2902.373,1636.217z"/>
					</g>
					<g>
						<path style="fill:#3C8F7C;" d="M2896.081,1659.524c-7.498-1.767-14.853-0.222-20.396,3.648
							c3.536,6.01,9.62,10.72,17.118,12.486s14.853,0.222,20.396-3.648C2909.663,1666.001,2903.579,1661.291,2896.081,1659.524z"/>
					</g>
					<g>
						<path style="fill:#3C8F7C;" d="M2879.178,1680.721c-7.499-1.767-14.854-0.223-20.397,3.648
							c3.536,6.009,9.62,10.719,17.118,12.485s14.853,0.223,20.396-3.647C2892.759,1687.197,2886.675,1682.487,2879.178,1680.721z"
							/>
					</g>
					<g>
						<path style="fill:#3C8F7C;" d="M2884.231,1645.488c0.378-7.211-1.992-14.003-6.043-18.891
							c-4.509,3.845-7.557,9.977-7.935,17.187c-0.378,7.211,1.992,14.003,6.043,18.891
							C2880.807,1658.83,2883.854,1652.698,2884.231,1645.488z"/>
					</g>
					<g>
						<path style="fill:#3C8F7C;" d="M2866.603,1667.412c0.487-7.202-1.78-14.037-5.757-18.999
							c-4.566,3.761-7.706,9.835-8.193,17.037c-0.487,7.203,1.78,14.038,5.757,19
							C2862.976,1680.689,2866.115,1674.615,2866.603,1667.412z"/>
					</g>
					<g>
						<path style="fill:#3C8F7C;" d="M2852.031,1701.63c-2.736-1.787-5.921-2.167-8.736-1.317c0.5,3.013,2.219,5.837,4.955,7.624
							c2.736,1.788,5.921,2.167,8.735,1.317C2856.486,1706.241,2854.768,1703.417,2852.031,1701.63z"/>
					</g>
				</g>
				<g>
					<g>
						<g>
							<path style="fill:#3C8F7C;" d="M2662.119,1796.706l-1.834-0.122c2.642-48.533-15.173-94.197-30.582-123.96
								c-16.724-32.298-34.305-53.364-34.48-53.573l1.346-1.384c0.177,0.21,17.879,21.416,34.706,53.903
								C2646.82,1701.583,2664.79,1747.655,2662.119,1796.706z"/>
						</g>
						<g>
							<path style="fill:#3C8F7C;" d="M2587.258,1616.271c4.189,7.056,10.203,11.435,16.309,12.636
								c1.033-7.344-0.462-15.612-4.652-22.668c-4.189-7.057-10.203-11.436-16.309-12.637
								C2581.573,1600.946,2583.068,1609.214,2587.258,1616.271z"/>
						</g>
						<g>
							<path style="fill:#3C8F7C;" d="M2609.657,1624.723c-0.299,8.522,2.249,16.446,6.518,22.06
								c4.63-4.709,7.715-12.06,8.015-20.582c0.299-8.522-2.25-16.446-6.518-22.06
								C2613.041,1608.85,2609.957,1616.2,2609.657,1624.723z"/>
						</g>
						<g>
							<path style="fill:#3C8F7C;" d="M2627.537,1639.889c-3.448,7.267-4.086,15.594-2.299,22.86
								c5.965-1.534,11.51-6.231,14.959-13.498s4.086-15.594,2.299-22.86C2636.531,1627.925,2630.986,1632.622,2627.537,1639.889z"
								/>
						</g>
						<g>
							<path style="fill:#3C8F7C;" d="M2639.821,1677.169c-1.651,2.925-2.155,6.392-1.613,9.498
								c2.542-0.436,4.999-2.211,6.651-5.136c1.651-2.925,2.155-6.391,1.613-9.498
								C2643.93,1672.469,2641.473,1674.244,2639.821,1677.169z"/>
						</g>
						<g>
							<path style="fill:#3C8F7C;" d="M2645.121,1690.552c-1.651,2.925-2.155,6.391-1.613,9.498c2.543-0.436,5-2.211,6.651-5.136
								s2.155-6.391,1.613-9.498C2649.229,1685.852,2646.773,1687.627,2645.121,1690.552z"/>
						</g>
						<g>
							<path style="fill:#3C8F7C;" d="M2604.815,1647.14c-6.258,0.093-11.733,3.253-15.313,8.172c4,4.807,9.74,7.803,15.998,7.71
								c6.258-0.092,11.733-3.253,15.313-8.172C2616.814,1650.043,2611.073,1647.047,2604.815,1647.14z"/>
						</g>
						<g>
							<path style="fill:#3C8F7C;" d="M2614.975,1666.059c-6.258,0.092-11.733,3.253-15.313,8.172
								c3.999,4.807,9.74,7.803,15.998,7.71c6.258-0.092,11.733-3.253,15.313-8.172
								C2626.973,1668.962,2621.232,1665.967,2614.975,1666.059z"/>
						</g>
						<g>
							<path style="fill:#3C8F7C;" d="M2631.787,1691.839c-4.072,0.061-7.637,2.117-9.967,5.319
								c2.604,3.128,6.34,5.078,10.413,5.018c4.073-0.06,7.637-2.117,9.967-5.318
								C2639.598,1693.729,2635.86,1691.779,2631.787,1691.839z"/>
						</g>
					</g>
				</g>
				<path style="fill:#3C8F7C;" d="M2820.339,1876.279c0-8.076-48.785,1.456-52.844-9.552s41.783-11.64,41.783-26.529
					c0-14.889-23.362-4.448-37.061-4.448c-13.699,0,27.046-6.375,27.046-11.644s-14.295-2.506-14.295-8.103
					c0-5.596,75.07-9.816,66.285-23.513s-49.146,3.99-60.227-3.097c-11.082-7.087,59.202-14.814,60.941-25.352
					c1.739-10.538-51.788,9.029-59.368,1.449c-7.579-7.579,84.642-34.818,80.777-54.84c-3.863-20.021-69.899,25.642-86.407,20.724
					c-16.51-4.917,83.246-75.195,60.063-102.579s-67.44,90.637-82.544,86.422s18.915-74.575,3.486-86.814
					c-15.43-12.239-59.715,99.061-62.511,121.916c-2.796,22.854-8.416-49.163-32.652-57.588
					c-24.236-8.424-0.702,44.615-4.918,60.772c-4.215,16.157-23.883-41.447-50.403-37.232s47.945,56.902,40.568,72.357
					c-7.376,15.455-64.877-51.595-82.896-33.577c-18.018,18.018,69.26,68.024,64.486,81.711s-57.136-9.769-72.214,5.309
					c-15.078,15.078,56.252,24.655,65.71,24.655s45.604,11.89,10.302,9.552C2608.147,1873.941,2820.339,1884.354,2820.339,1876.279z
					"/>
				<g>
					<path style="fill:#50BFA5;" d="M2681.277,1885.611c0,0-58.75,3.149-75.854-7.62c-17.104-10.769-3.604-19.15-3.604-19.15
						s-54.326-1.183-54.19-14.054c0.137-12.871,13.305-12.129,13.305-12.129s-27.421-18.636-22.307-30.252
						c7.859-17.849,52.522,13.229,52.522,13.229s-14.642-17.388-2.811-21.45C2620.813,1783.031,2681.277,1885.611,2681.277,1885.611
						z"/>
					<path style="fill:#3C8F7C;" d="M2538.626,1802.406c-5.114,11.616,22.307,30.252,22.307,30.252s-19.791-0.263-16.578,12.256
						c3.2,12.468,52.958,16.678,52.958,16.678s-17.372,3.397-0.268,14.166c17.104,10.77,84.232,9.854,84.232,9.854
						L2538.626,1802.406z"/>
				</g>
			</g>
			<g>
				<path style="fill:#184655;" d="M286.164,1412.642c0.088-2.929,4.13-5.202,6.273-2.606c2.136,2.588,2.045,0.841,4.126,6.439
					c5.974,16.069,14.753,31.617,24.972,45.205c19.58,26.034,38.964,39.167,60.972,52.18c-9.069-20.433-15.142-42.242-15.916-64.242
					c-0.281-8.017-0.127-16.332,3.302-23.689c0.958-2.055,4.638-1.633,5.011,0.657c1.849,11.353-0.872,19.911,2.802,40.23
					c8.769,48.481,43.471,99.905,76.948,135.915c-6.42-60.962-9.532-130.244,1.949-191.732c1.883-10.086,4.877-19.679,7.66-29.532
					c0.655-2.317,3.949-1.321,3.543,0.979c-0.578,3.278-6.048,45.592-6.378,48.508c-5.306,46.828-4.246,98.704-0.116,146.012
					c25.968-35.165,43.349-76.293,51.476-119.242c2.402-12.695,3.043-25.803,6.412-38.263c0.464-1.717,3.3-1.901,3.652,0
					c3.459,18.667-3.467,51.69-8.515,69.634c-10.23,36.36-26.599,68.954-48.977,98.07c-0.87,1.132,35.938,285.658,34.948,289.261
					c-1.668,6.076-12.254,10.341-13.895-0.439c-0.669-4.39-20.894-177.392-30.02-257.53c-3.448-1.9-5.667-5.279-14.538-15.25
					c-20.53-23.078-40.832-51.792-54.4-78.873c-8.143-0.463-66.941-29.072-96.108-94.219c-0.841-1.878-4.628-10.697-5.17-12.664
					C285.715,1415.765,286.114,1414.306,286.164,1412.642z"/>
				<path style="fill:#3C8F7C;" d="M475.001,1320.391c-0.669-8.757-1.018-17.713-1.018-26.825
					c0-101.627,43.133-184.011,96.341-184.011c53.208,0,96.341,82.384,96.341,184.011c0,9.112-0.349,18.068-1.018,26.825H475.001z"
					/>
				<path style="fill:#50BFA5;" d="M365.97,1275.167c-0.669-12.351-1.018-24.98-1.018-37.831
					c0-143.32,43.133-259.505,96.341-259.505c53.208,0,96.341,116.185,96.341,259.505c0,12.851-0.349,25.48-1.019,37.831H365.97z"/>
				<path style="fill:#50BFA5;" d="M401.244,1434.187c0.67-8.757,1.019-17.713,1.019-26.825
					c0-101.627-43.133-184.011-96.341-184.011c-53.208,0-96.341,82.384-96.341,184.011c0,9.112,0.348,18.068,1.018,26.825H401.244z"
					/>
				<path style="fill:#3C8F7C;" d="M555.431,1434.187c0.849-12.35,1.291-24.98,1.291-37.831c0-143.32-54.68-259.504-122.131-259.504
					s-122.131,116.184-122.131,259.504c0,12.851,0.442,25.481,1.291,37.831H555.431z"/>
				<path style="fill:#50BFA5;" d="M461.657,1136.852c33.711,0,63.827,36.858,83.703,94.664c10.121-5.308,20.875-8.165,32.022-8.165
					c59.852,0,108.371,82.384,108.371,184.011c0,9.112-0.392,18.068-1.145,26.825H354.432c-0.753-12.35-1.145-24.98-1.145-37.831
					C353.286,1253.035,401.805,1136.852,461.657,1136.852z"/>
			</g>
			<g>
				<g>
					<path style="fill:#29446D;" d="M3050.279,1671.039c13.79-35.879,27.3-71.774,37.104-109.1
						c30.17-114.863,22.887-198.583,21.761-238.838c-0.148-5.316,8.385-6.775,9.13-1.286c2.564,18.895,3.135,38.089,3.26,57.152
						c0.213,32.212-1.746,64.44-5.875,96.631c22.129,5.764,43.065-2.867,60.191-18.372c29.523-26.726,40.063-62.344,44.703-101.804
						c0.475-4.031,0.622-7.845,3.904-10.177c0.73-2.068,3.752-2.704,4.502,0.383c4.679,4.809,2.412,14.462,1.691,20.674
						c-9.742,84.035-60.826,124.771-101.955,124.416c-4.51-0.039-9.995-0.263-14.898-1.625
						c-2.964,20.102-6.775,40.065-11.438,59.816c-8.886,37.635-21.351,73.953-35.067,109.935
						c-46.901,123.032-61.865,185.886-75.191,221.497c-2.015,7.159-12.604,4.161-10.751-3.087
						C2982.008,1874.673,3018.601,1753.46,3050.279,1671.039z"/>
					<path style="fill:#29446D;" d="M2862.357,1347.584c0.444-2.648,1.99-4.404,2.579-6.882c0.776-3.271,6.113-3.598,6.672,0
						c0.319,2.058,1.462,3.323,1.905,5.432c1.43,6.803-2.027,45.077,6.999,103.668c2.399,15.571,5.049,31.056,10.234,45.92
						c8.382,24.024,23.657,49.921,42.65,66.289c0.603-34.319,2.655-68.594,6.771-102.685c2.464-20.403,5.571-40.706,9.346-60.892
						c1.838-9.829,3.828-19.628,5.965-29.391c2.244-10.248,4.357-20.084,9.263-29.356c1.507-2.848,5.789-1.523,5.796,1.635
						c0.02,9.098-1.799,17.476-3.696,26.313c-1.89,8.8-3.657,17.629-5.305,26.481c-12.203,65.604-16.793,123.86-16.743,189.546
						c20.121-25.311,37.713-55.623,50.748-85.396c15.668-35.786,26.222-74.299,30.614-113.381
						c1.229-10.933,1.976-21.926,2.21-32.931c0.121-5.698,0.238-11.395,0.352-17.093c0.06-2.933,1.183-11.771,6.121-9.182
						c4.542,2.383,4.112,7.699,4.492,12.345c0.414,5.065,0.451,10.113,0.387,15.196c-0.121,9.729-0.643,19.451-1.543,29.135
						c-6.531,70.187-33.016,139.56-73.282,196.405c-6.138,8.665-12.477,17.952-19.931,25.515
						c1.717,112.333,18.762,262.106,19.053,273.446c0.064,2.504,0,1.858-0.929,2.787c-3.646,3.646-7.92,4.846-9.289,0.929
						c-2.587-7.401-2.162-14.338-6.021-55.317c-6.881-73.076-14.59-240.486-14.561-247.272
						c-23.908-17.178-40.838-43.602-51.9-71.199c-5.869-14.645-9.314-29.712-11.898-45.312
						C2860.629,1409.287,2860.902,1356.257,2862.357,1347.584z"/>
				</g>
				<path style="fill:#4E9B87;" d="M3026.707,1255.908c-0.906-8.095-1.378-16.373-1.378-24.796
					c0-93.939,58.376-170.093,130.387-170.093s130.388,76.153,130.388,170.093c0,8.423-0.473,16.701-1.379,24.796H3026.707z"/>
				<path style="fill:#50BFA5;" d="M2879.145,1214.105c-0.906-11.416-1.379-23.091-1.379-34.97
					c0-132.479,58.377-239.876,130.388-239.876s130.387,107.396,130.387,239.876c0,11.879-0.472,23.554-1.378,34.97H2879.145z"/>
				<path style="fill:#4E9B87;" d="M3135.559,1361.098c1.149-11.416,1.748-23.092,1.748-34.97
					c0-132.479-74.004-239.876-165.292-239.876s-165.291,107.396-165.291,239.876c0,11.878,0.598,23.554,1.747,34.97H3135.559z"/>
				<path style="fill:#50BFA5;" d="M3008.646,1086.252c45.625,0,86.383,34.07,113.283,87.504
					c13.697-4.905,28.252-7.547,43.339-7.547c81.003,0,146.669,76.152,146.669,170.092c0,8.423-0.531,16.701-1.551,24.797h-446.858
					c-1.02-11.416-1.55-23.092-1.55-34.97C2861.979,1193.648,2927.644,1086.252,3008.646,1086.252z"/>
			</g>
			<rect x="122.877" y="1877.31" style="fill:#1A2538;" width="3141.173" height="8.162"/>
		</g>
		<g>
			<g>
				<path style="fill:#1A2538;" d="M1346.063,1784.102c-16.854-9.443-27.327-28.17-31.127-55.66
					c-3.006-21.75-1.869-49.051,3.38-81.143c8.919-54.526,26.889-104.764,27.069-105.264l2.822,1.016
					c-0.18,0.498-18.066,50.51-26.937,104.77c-8.127,49.711-10.169,113.254,26.259,133.664L1346.063,1784.102z"/>
			</g>
			<g>
				<path style="fill:#1A2538;" d="M1362.063,1784.102c-16.854-9.443-27.327-28.17-31.127-55.66
					c-3.006-21.75-1.869-49.051,3.38-81.143c8.919-54.526,26.889-104.764,27.069-105.264l2.822,1.016
					c-0.18,0.498-18.066,50.51-26.937,104.77c-8.127,49.711-10.169,113.254,26.259,133.664L1362.063,1784.102z"/>
			</g>
			<g>
				<path style="fill:#1A2538;" d="M1369.458,1514.131c-0.058-0.197-5.833-20.063-6.42-50.354
					c-0.542-27.936,3.331-70.766,24.854-116.166c9.65-20.355,30.05-45.072,51.648-71.24c36.726-44.496,78.352-94.93,83.327-141.789
					c4.069-38.328-4.908-60.82-13.155-72.938c-8.899-13.076-18.887-17.217-18.987-17.256l1.114-2.787
					c0.437,0.176,10.801,4.424,20.219,18.158c8.599,12.541,17.973,35.756,13.792,75.139c-5.07,47.758-47.001,98.561-83.996,143.383
					c-21.476,26.02-41.761,50.596-51.251,70.615c-40.709,85.869-18.497,163.609-18.268,164.385L1369.458,1514.131z"/>
			</g>
			
				<rect x="1335.219" y="1455.928" transform="matrix(0.9746 0.2239 -0.2239 0.9746 373.2859 -265.1687)" style="fill:#5184CE;" width="41.778" height="115.555"/>
			
				<rect x="1320.765" y="1555.976" transform="matrix(0.9746 0.2239 -0.2239 0.9746 384.0724 -261.3865)" style="fill:#184655;" width="48" height="14.222"/>
			
				<rect x="1343.898" y="1455.265" transform="matrix(0.9746 0.2239 -0.2239 0.9746 362.1087 -269.1194)" style="fill:#184655;" width="48" height="14.222"/>
			<g>
				<path style="fill:#13375B;" d="M1544.322,973.295l-3.079,2.759c-1.584,1.419-3.968,1.359-5.326-0.133l-54.658-60.126
					c-1.357-1.493-1.172-3.854,0.412-5.272l3.08-2.759c1.584-1.419,3.968-1.36,5.325,0.133l54.658,60.126
					C1546.091,969.516,1545.906,971.876,1544.322,973.295z"/>
				<path style="fill:#EA9081;" d="M1729.629,924.448c-7.305-5.944-48.117-11.406-47.4-2.77
					c0.717,8.636-55.108,122.621-55.108,122.621l-65.429-57.312c-0.613-2.002-11.153-21.543-11.473-25.393
					c-0.335-4.039-12.056-11.107-17.5-10.066c-5.444,1.041,4.655,7.874,5.318,9.128c1.805,3.415-5.173,4.696-5.173,4.696
					s-20.042-11.007-20.468-17.48c-0.425-6.473-4.563-20.041-8.893-17.203c-2.234,1.464-2.214,11.091-1.516,15.658
					c-1.287-5.184-3.111-11.039-4.885-11.619c-3.243-1.06-4.855,3.067-4.266,5.093c0.588,2.026,5.824,24.039,7.415,26.517
					c1.555,2.42,33.921,28.514,38.584,34.178c0,0,58.4,79.219,98.857,90.491c5.856,1.632,22.842-18.185,41.725-41.666
					C1698.298,1025.84,1752.459,943.022,1729.629,924.448z"/>
				<path style="fill:#274F89;" d="M1655.852,965.653c23.355-52.532,54.265-136.41,91.383-141.063c0,0,23.075-4.805,35.106,27.163
					c6.779,18.514-24.883,109.702-65.36,170.172C1703.507,1000.809,1678.412,975.907,1655.852,965.653z"/>
				<path style="fill:#13375B;" d="M1863.709,838.209c20.766,3.082,33.412,81.358,33.412,81.358l62.896-14.955
					c0,0-21.32-80.663-59.054-110.964c-37.732-30.301-120.372,0.715-150.21,25.883c-29.838,25.168-12.585,50.697-12.585,50.697
					S1842.944,835.128,1863.709,838.209z"/>
				<path style="fill:#184655;" d="M1714.717,866.851c0,0,13.156,34.547,17.598,63.364c4.441,28.816,26.956,50.627,38.071,122.747
					c11.114,72.12,29.184,137.481,29.184,137.481s79.878-3.766,93.456-22.664c13.579-18.898-11.499-173.127-35.827-246.673
					c-24.327-73.546,41.044-102.109,2.898-122.635c-38.145-20.526-81.983,1.618-100.587,10.614
					C1740.907,818.081,1712.267,850.953,1714.717,866.851z"/>
				<path style="fill:#F7CC7F;" d="M1852.6,911.298c0,0,16.187,56.718,16.076,116.116c-0.11,59.397,24.739,173.619,24.739,173.619
					s63.95,34.82,77.367-0.413c2.521-6.619,1.56-81.553-1.396-112.58c-3.141-32.953-21.167-147.227-27.065-184.25
					c-1.237-7.765-4.409-15.075-9.212-21.253c-15.42-19.839-50.606-63.629-61.091-64.046
					C1858.335,817.947,1838.226,850.199,1852.6,911.298z"/>
				<path style="fill:#13375B;" d="M1866.973,1072.828c-0.505-3.741-0.99-7.477-1.454-11.191
					c18.034,6.095,77.511-6.187,100.987-11.934c0.493,3.902,0.932,7.5,1.305,10.74
					C1946.29,1065.72,1888.443,1079.779,1866.973,1072.828z"/>
				<path style="fill:#13375B;" d="M1972.47,1148.81c0.067,3.576,0.122,7.075,0.161,10.46c-23.117,8.081-71.511-8.995-94.708-16.963
					c-0.7-3.961-1.411-8.051-2.127-12.242C1897.365,1137.481,1952.112,1155.634,1972.47,1148.81z"/>
				<path style="fill:#13375B;" d="M1972.121,1134.012c-9.973,6.155-71.948,45.153-86.819,47.99
					c-0.596-3.055-1.252-6.451-1.955-10.146c10.439-2.337,57.695-31.42,88.382-50.265
					C1971.874,1125.728,1972.006,1129.885,1972.121,1134.012z"/>
				<path style="fill:#F7A491;" d="M1686.465,1744.269c0,0,2.193,39.474,2.206,39.556c0.806,5.012,3.981,17.394,3.981,21.949
					c0,17.115-74.762-14.529-58.007-22.114c1.518-0.687,9.462-5.88,9.96-11.704c0.769-8.976,2.718-27.133,2.718-27.133
					L1686.465,1744.269z"/>
				<path style="fill:#F47458;" d="M1634.831,1783.497c0,0,17.552,5.235,26.542,6.544c8.99,1.31,20.842-9.712,27.201-6.734
					c6.999,3.276,6.292,35.542,6.292,35.542s-93.695,5.624-120.163-3.061C1564.217,1812.347,1598.947,1795.691,1634.831,1783.497z"
					/>
				<path style="fill:#F7A491;" d="M1826.491,1748.057c0,0,2.193,39.474,2.206,39.555c0.807,5.012,3.983,17.394,3.983,21.949
					c0,17.116-74.763-14.528-58.007-22.113c1.517-0.687,11.817-9.756,12.315-15.581c0.77-8.976,0.362-23.257,0.362-23.257
					L1826.491,1748.057z"/>
				<path style="fill:#F47458;" d="M1774.858,1787.285c0,0,17.552,5.235,26.542,6.544s20.842-9.712,27.2-6.735
					c6.999,3.277,7.278,32.771,7.278,32.771s-100.167,7.396-123.718,0.452C1701.579,1817.197,1738.975,1799.479,1774.858,1787.285z"
					/>
				<path style="fill:#1A2538;" d="M1732.702,1178.232l-40.797,17.926l-57.298,319.387l2.694,242.46l53.299,1.263
					c0,0,24.791-212.091,24.791-228.527s114.827-287.635,114.827-287.635L1732.702,1178.232z"/>
				<path style="fill:#283A56;" d="M1732.412,1196.029c0,0,23.286,249.188,23.286,291.192s18.88,277.096,18.88,277.096l53.427-0.314
					c0,0,3.854-71.658,9.583-177.078c0.896-16.511-1.156-49.824,0-66.916c8.311-122.937,26.619-284.249,18.769-330.123
					c-1.264-7.384-6.485-23.359-11.109-28.232C1810.26,1124.783,1732.412,1196.029,1732.412,1196.029z"/>
				
					<ellipse transform="matrix(0.7071 -0.7071 0.7071 0.7071 -871.3068 1474.4774)" style="fill:#184655;" cx="1344.198" cy="1788.999" rx="88.311" ry="88.311"/>
				
					<ellipse transform="matrix(0.7071 -0.7071 0.7071 0.7071 -667.7254 1965.9663)" style="fill:#184655;" cx="2039.269" cy="1788.999" rx="88.311" ry="88.311"/>
				
					<ellipse transform="matrix(0.2298 -0.9732 0.9732 0.2298 -705.7766 2686.2112)" style="fill:#5184CE;" cx="1344.198" cy="1788.999" rx="59.823" ry="59.823"/>
				
					<ellipse transform="matrix(0.2298 -0.9732 0.9732 0.2298 -170.4006 3362.6877)" style="fill:#5184CE;" cx="2039.269" cy="1788.999" rx="59.823" ry="59.823"/>
				<path style="fill:#1A2538;" d="M2044.014,1783.617c-1.659-4.419-6.587-6.655-11.005-4.996l-103.469,38.865h-416.681
					l-106.006-235.371l-13.973,44.427l93.51,206.339l0.01-0.006c0.304,1.065,1.12,1.704,3.036,1.704h444.428
					c2.527,0,105.153-39.957,105.153-39.957C2043.438,1792.963,2045.674,1788.035,2044.014,1783.617z"/>
				<path style="fill:#5184CE;" d="M1685.247,1216.765l18.198-115.025c0,0-16.45-105.94-15.314-178.609
					c0.679-32.219,19.57-75.463,23.851-76.384c21.395-4.599,28.043-38.037,63.792-13.508
					c42.097,29.485,89.293,147.081,85.231,381.303C1861.005,1214.541,1730.604,1231.146,1685.247,1216.765z"/>
				<path style="fill:#F7A491;" d="M1690.871,808.082l9.017,31.08c0,0,9.394,45.732,26.118,50.589
					c16.725,4.858,37.172-56.054,37.172-56.054l-44.509-85.713L1690.871,808.082z"/>
				<path style="fill:#F47458;" d="M1731.209,772.143c0.969,28.672-17.367,51.323-32.694,62.29l-7.645-26.35l27.798-60.1
					L1731.209,772.143z"/>
				<g>
					<path style="fill:#F7A491;" d="M1718.868,697.019c1.172-0.764,25.56,63.478,12.752,85.739
						c-12.808,22.26-44.633,36.035-59.884,24.453c-16.87-12.81-32.763-84.278-10.621-109.283
						C1683.258,672.923,1718.868,697.019,1718.868,697.019z"/>
					<path style="fill:#13375B;" d="M1679.268,666.394c21.066-4.132,51.099,2.471,69.147,20.919
						c22.194,22.683-4.101,109.539-4.101,109.539l-11.752-15.953c0,0-7.934-9.419-5.67-20.077
						c2.266-10.658-13.364-13.716-19.187-20.773c-4.482-5.435-7.898-19.473-15.072-28.512c0,0-22.107-10.302-35.494-7.624
						C1634.319,708.477,1649.094,672.313,1679.268,666.394z"/>
					<path style="fill:#F7A491;" d="M1716.423,752.371c-2.614,7.601-1.034,15.031,3.53,16.597
						c4.564,1.565,10.384-3.327,12.998-10.928c2.614-7.601,1.033-15.032-3.531-16.597
						C1724.856,739.877,1719.037,744.77,1716.423,752.371z"/>
					<path style="fill:#FFFFFF;" d="M1661.326,779.33l26.931-9.167c0,0,2.886,10.615-8.84,14.995
						C1665.119,790.498,1661.326,779.33,1661.326,779.33z"/>
				</g>
				<path style="fill:#184655;" d="M1723.129,952.244c-6.524-45.777-11.174-109.203,29.872-132.206
					c14.645-8.386,34.352-3.233,49.271,0.47l0,0c-17.821-0.414-33.539,8.392-41.502,14.254
					c-33.373,22.419-26.929,74.588-20.837,115.089c15.317,101.836,112.605,70.68,112.605,70.68l3.967,18.011
					c0,0-50.578,12.871-89.771-1.278C1735.482,1025.98,1723.129,952.244,1723.129,952.244z"/>
				<path style="fill:#F7A491;" d="M1483.469,1008.32c12.858-4.429,36.15-6.124,44.836,2.392
					c4.695,4.603,115.401,33.422,118.998,31.058c8.641-5.68,37.289-80.612,53.159-122.515c15.87-41.903,22.418-45.136,37.106-50.703
					c12.547-4.755,50.313,14.22,47.215,35.736c-5.987,41.575-92.306,191.617-101.549,195.194
					c-34.354,13.296-171.933-60.314-174.525-61.578c-3.458-1.687-13.705,3.12-17.162,1.435c-3.457-1.687-10.506,10.029-15.036,0.683
					C1475.325,1037.573,1470.611,1012.748,1483.469,1008.32z"/>
				<g>
					
						<rect x="1418.04" y="1036.697" transform="matrix(-0.9803 -0.1973 0.1973 -0.9803 2560.3054 2968.9241)" style="fill:#1A2538;" width="20.091" height="640.386"/>
					
						<rect x="1383.244" y="1267.533" transform="matrix(-0.9803 -0.1974 0.1974 -0.9803 2479.5481 3231.7222)" style="fill:#F47458;" width="35.158" height="449.525"/>
					<path style="fill:#1A2538;" d="M1336.139,1813.575L1336.139,1813.575c13.597,2.737,26.838-6.065,29.576-19.662l15.729-78.126
						c0.347-1.722-0.768-3.398-2.49-3.745l-43.004-8.658c-1.721-0.347-3.398,0.769-3.745,2.489l-15.73,78.126
						C1313.739,1797.596,1322.542,1810.838,1336.139,1813.575z"/>
					<path style="fill:#1A2538;" d="M1341.254,1689.081l38.346,7.721c3.008,0.605,5.938-1.342,6.543-4.351l36.964-183.599
						c0.606-3.008-1.342-5.937-4.35-6.542l-38.346-7.721c-3.008-0.605-5.937,1.342-6.543,4.35l-36.964,183.599
						C1336.298,1685.546,1338.246,1688.476,1341.254,1689.081z"/>
					<path style="fill:#F47458;" d="M1476.511,1040.021c-1.642,8.158,3.64,16.103,11.797,17.745
						c8.158,1.643,16.104-3.64,17.746-11.797c1.643-8.158-3.639-16.104-11.797-17.746S1478.154,1031.863,1476.511,1040.021z"/>
				</g>
				<path style="fill:#466EB6;" d="M1669.22,963.502c23.356-52.532,63.347-134.259,100.465-138.912c0,0,23.076-4.805,35.106,27.163
					c6.78,18.514-24.882,109.702-65.36,170.172C1725.958,1000.809,1691.781,973.757,1669.22,963.502z"/>
				<g>
					<path style="fill:#50BFA5;" d="M1895.358,1217.324l-20.327,2.402c-9.058,1.07-17.269-5.404-18.339-14.463l-15.928-134.769
						c-1.07-9.059,5.404-17.269,14.463-18.34l20.327-2.402c9.058-1.07,17.269,5.405,18.339,14.463l15.928,134.77
						C1910.892,1208.043,1904.417,1216.254,1895.358,1217.324z"/>
					
						<rect x="1845.205" y="1100.804" transform="matrix(0.9931 -0.1174 0.1174 0.9931 -116.9324 227.3649)" style="fill:#13375B;" width="53.499" height="11.363"/>
				</g>
			</g>
		</g>
	</g>
</g>
</svg>
